<mxfile host="app.diagrams.net" modified="2021-11-08T13:01:45.473Z" agent="5.0 (Windows NT 10.0; Win64; x64) AppleWebKit/537.36 (KHTML, like Gecko) Chrome/94.0.4606.81 Safari/537.36" etag="yd_8PaiXonjbeIRuvfMR" version="15.3.6" type="github">
  <diagram id="oMt9lyGNIaF6vaY37zjU" name="Page-1">
    <mxGraphModel dx="1038" dy="1716" grid="1" gridSize="10" guides="1" tooltips="1" connect="1" arrows="1" fold="1" page="1" pageScale="1" pageWidth="827" pageHeight="1169" math="0" shadow="0">
      <root>
        <mxCell id="0" />
        <mxCell id="1" parent="0" />
        <mxCell id="Cc2MgUanJk5E0EXbg8ge-1" value="&lt;span style=&quot;color: rgba(0 , 0 , 0 , 0) ; font-family: monospace ; font-size: 0px&quot;&gt;%3CmxGraphModel%3E%3Croot%3E%3CmxCell%20id%3D%220%22%2F%3E%3CmxCell%20id%3D%221%22%20parent%3D%220%22%2F%3E%3CmxCell%20id%3D%222%22%20value%3D%22%D0%BF%D1%80%D0%B8%D0%BC%D0%B5%D1%80%3A%26lt%3Bbr%26gt%3B%26quot%3B%26lt%3Bspan%20style%3D%26quot%3Bbackground-color%3A%20transparent%20%3B%20font-size%3A%2011pt%20%3B%20font-family%3A%20%26amp%3B%2334%3Barial%26amp%3B%2334%3B%20%3B%20vertical-align%3A%20baseline%26quot%3B%26gt%3Bvoid%20print_mas%20(%20int*%20arr%2C%20int%20size)%5Ct%26lt%3B%2Fspan%26gt%3B%26lt%3Bspan%20style%3D%26quot%3Bbackground-color%3A%20transparent%20%3B%20font-family%3A%20%26amp%3B%2334%3Barial%26amp%3B%2334%3B%20%3B%20font-size%3A%2011pt%20%3B%20text-indent%3A%2036pt%26quot%3B%26gt%3B%7B%20%5Cn%26lt%3Bbr%26gt%3B%5Ct%26lt%3B%2Fspan%26gt%3B%26lt%3Bspan%20style%3D%26quot%3Bbackground-color%3A%20transparent%20%3B%20font-family%3A%20%26amp%3B%2334%3Barial%26amp%3B%2334%3B%20%3B%20font-size%3A%2011pt%20%3B%20text-indent%3A%2036pt%26quot%3B%26gt%3Bfor%20(int%20i%3D0%3Bi%26amp%3Blt%3Bsize%3Bi%2B%2B)%5Cn%26lt%3Bbr%26gt%3B%5Ct%5Ct%26lt%3B%2Fspan%26gt%3B%26lt%3Bspan%20style%3D%26quot%3Bbackground-color%3A%20transparent%20%3B%20font-family%3A%20%26amp%3B%2334%3Barial%26amp%3B%2334%3B%20%3B%20font-size%3A%2011pt%20%3B%20text-indent%3A%2036pt%26quot%3B%26gt%3Bstd%3A%3Acout%20%26amp%3Blt%3B%26amp%3Blt%3B%20arr%5Bi%5D%20%26amp%3Blt%3B%26amp%3Blt%3B%20%E2%80%9C%5Ct%E2%80%9D%3B%5Cn%26lt%3B%2Fspan%26gt%3B%26lt%3Bspan%20style%3D%26quot%3Bbackground-color%3A%20transparent%20%3B%20font-family%3A%20%26amp%3B%2334%3Barial%26amp%3B%2334%3B%20%3B%20font-size%3A%2011pt%26quot%3B%26gt%3B%7D%26lt%3B%2Fspan%26gt%3B%26lt%3Bspan%20style%3D%26quot%3Bbackground-color%3A%20transparent%20%3B%20font-family%3A%20%26amp%3B%2334%3Barial%26amp%3B%2334%3B%20%3B%20font-size%3A%2011pt%26quot%3B%26gt%3B%26quot%3B%26lt%3B%2Fspan%26gt%3B%26lt%3Bspan%20style%3D%26quot%3Bbackground-color%3A%20transparent%20%3B%20font-family%3A%20%26amp%3B%2334%3Barial%26amp%3B%2334%3B%20%3B%20font-size%3A%2011pt%26quot%3B%26gt%3B%26lt%3Bbr%26gt%3B%26lt%3B%2Fspan%26gt%3B%22%20style%3D%22text%3Bhtml%3D1%3Balign%3Dcenter%3BverticalAlign%3Dmiddle%3Bresizable%3D0%3Bpoints%3D%5B%5D%3Bautosize%3D1%3BstrokeColor%3Dnone%3BfillColor%3Dnone%3B%22%20vertex%3D%221%22%20parent%3D%221%22%3E%3CmxGeometry%20x%3D%22-46%22%20y%3D%22180%22%20width%3D%22260%22%20height%3D%2260%22%20as%3D%22geometry%22%2F%3E%3C%2FmxCell%3E%3C%2Froot%3E%3C%2FmxGraphModel%3E&lt;/span&gt;" style="whiteSpace=wrap;html=1;aspect=fixed;hachureGap=4;pointerEvents=0;" vertex="1" parent="1">
          <mxGeometry x="214" y="70" width="560" height="560" as="geometry" />
        </mxCell>
        <mxCell id="Cc2MgUanJk5E0EXbg8ge-2" value="Translator" style="text;html=1;strokeColor=none;fillColor=none;align=center;verticalAlign=middle;whiteSpace=wrap;rounded=0;hachureGap=4;pointerEvents=0;" vertex="1" parent="1">
          <mxGeometry x="530" y="70" width="110" height="30" as="geometry" />
        </mxCell>
        <mxCell id="Cc2MgUanJk5E0EXbg8ge-3" value="" style="endArrow=classic;html=1;startSize=14;endSize=14;sourcePerimeterSpacing=8;targetPerimeterSpacing=8;entryX=0.5;entryY=0;entryDx=0;entryDy=0;" edge="1" parent="1" target="Cc2MgUanJk5E0EXbg8ge-7">
          <mxGeometry width="50" height="50" relative="1" as="geometry">
            <mxPoint x="427" y="-40" as="sourcePoint" />
            <mxPoint x="614" y="10" as="targetPoint" />
          </mxGeometry>
        </mxCell>
        <mxCell id="Cc2MgUanJk5E0EXbg8ge-4" value="Набор символов" style="text;html=1;align=center;verticalAlign=middle;resizable=0;points=[];autosize=1;strokeColor=none;fillColor=none;" vertex="1" parent="1">
          <mxGeometry x="430" y="-30" width="110" height="20" as="geometry" />
        </mxCell>
        <mxCell id="Cc2MgUanJk5E0EXbg8ge-5" value="пример:&lt;br&gt;&quot;&lt;span style=&quot;background-color: transparent ; font-size: 11pt ; font-family: &amp;#34;arial&amp;#34; ; vertical-align: baseline&quot;&gt;void print_mas ( int* arr, int size)\t&lt;/span&gt;&lt;span style=&quot;background-color: transparent ; font-family: &amp;#34;arial&amp;#34; ; font-size: 11pt ; text-indent: 36pt&quot;&gt;{ \n&lt;br&gt;\t&lt;/span&gt;&lt;span style=&quot;background-color: transparent ; font-family: &amp;#34;arial&amp;#34; ; font-size: 11pt ; text-indent: 36pt&quot;&gt;for (int i=0;i&amp;lt;size;i++)\n&lt;br&gt;\t\t&lt;/span&gt;&lt;span style=&quot;background-color: transparent ; font-family: &amp;#34;arial&amp;#34; ; font-size: 11pt ; text-indent: 36pt&quot;&gt;std::cout &amp;lt;&amp;lt; arr[i] &amp;lt;&amp;lt; “\t”;\n&lt;/span&gt;&lt;span style=&quot;background-color: transparent ; font-family: &amp;#34;arial&amp;#34; ; font-size: 11pt&quot;&gt;}&lt;/span&gt;&lt;span style=&quot;background-color: transparent ; font-family: &amp;#34;arial&amp;#34; ; font-size: 11pt&quot;&gt;&quot;&lt;/span&gt;&lt;span style=&quot;background-color: transparent ; font-family: &amp;#34;arial&amp;#34; ; font-size: 11pt&quot;&gt;&lt;br&gt;&lt;/span&gt;" style="text;html=1;align=center;verticalAlign=middle;resizable=0;points=[];autosize=1;strokeColor=none;fillColor=none;" vertex="1" parent="1">
          <mxGeometry x="154" y="-20" width="260" height="60" as="geometry" />
        </mxCell>
        <mxCell id="Cc2MgUanJk5E0EXbg8ge-11" style="edgeStyle=none;curved=1;rounded=0;orthogonalLoop=1;jettySize=auto;html=1;endArrow=open;startSize=14;endSize=14;sourcePerimeterSpacing=8;targetPerimeterSpacing=8;" edge="1" parent="1" source="Cc2MgUanJk5E0EXbg8ge-7" target="Cc2MgUanJk5E0EXbg8ge-10">
          <mxGeometry relative="1" as="geometry" />
        </mxCell>
        <mxCell id="Cc2MgUanJk5E0EXbg8ge-7" value="Лексический анализатор - преобразует набор символов в лексемы (слова) рассматриваемого языка." style="rounded=0;whiteSpace=wrap;html=1;hachureGap=4;pointerEvents=0;" vertex="1" parent="1">
          <mxGeometry x="250" y="145" width="354" height="50" as="geometry" />
        </mxCell>
        <mxCell id="Cc2MgUanJk5E0EXbg8ge-14" style="edgeStyle=none;curved=1;rounded=0;orthogonalLoop=1;jettySize=auto;html=1;exitX=0.5;exitY=1;exitDx=0;exitDy=0;endArrow=open;startSize=14;endSize=14;sourcePerimeterSpacing=8;targetPerimeterSpacing=8;" edge="1" parent="1" source="Cc2MgUanJk5E0EXbg8ge-10" target="Cc2MgUanJk5E0EXbg8ge-13">
          <mxGeometry relative="1" as="geometry" />
        </mxCell>
        <mxCell id="Cc2MgUanJk5E0EXbg8ge-10" value="Синтаксический&amp;nbsp; анализатор - преобразует набор слов в структуры рассматриваемого языка (строит дерево разбора для предложения)." style="rounded=0;whiteSpace=wrap;html=1;hachureGap=4;pointerEvents=0;" vertex="1" parent="1">
          <mxGeometry x="250" y="310" width="354" height="50" as="geometry" />
        </mxCell>
        <mxCell id="Cc2MgUanJk5E0EXbg8ge-12" value="пример:&lt;br&gt;&quot;&lt;span style=&quot;background-color: transparent ; font-size: 11pt ; font-family: &amp;#34;arial&amp;#34; ; vertical-align: baseline&quot;&gt;void&quot; &quot;print_mas&quot; &quot;(&quot; &quot;int*&quot; &quot;arr&quot; &quot;,&quot; &quot;int&quot; &quot;size&quot; &quot;)&quot; &quot;\t&quot; &quot;&lt;/span&gt;&lt;span style=&quot;background-color: transparent ; font-family: &amp;#34;arial&amp;#34; ; font-size: 11pt ; text-indent: 36pt&quot;&gt;{&quot; &quot;\n&quot;&lt;br&gt;&quot;\t&quot; &quot;&lt;/span&gt;&lt;span style=&quot;background-color: transparent ; font-family: &amp;#34;arial&amp;#34; ; font-size: 11pt ; text-indent: 36pt&quot;&gt;for&quot; &quot;(&quot; &quot;int&quot; &quot;i&quot;&quot;=&quot;0&quot; &quot;;&quot; &quot;i&quot; &quot;&amp;lt;&quot; &quot;size&quot; &quot;;&quot; &quot;i&quot; &quot;++&quot; &quot;)&quot; &quot;\n&quot;&lt;br&gt;&quot;\t&quot; &quot;\t&quot; &quot;&lt;/span&gt;&lt;span style=&quot;background-color: transparent ; font-family: &amp;#34;arial&amp;#34; ; font-size: 11pt ; text-indent: 36pt&quot;&gt;std::cout&quot; &quot;&amp;lt;&amp;lt;&quot; &quot;arr&quot; &quot;[&quot; &quot;i&quot; &quot;]&lt;/span&gt;&lt;span style=&quot;font-family: &amp;#34;arial&amp;#34; ; font-size: 14.6667px ; text-indent: 48px&quot;&gt;&quot; &quot;&lt;/span&gt;&lt;span style=&quot;background-color: transparent ; font-family: &amp;#34;arial&amp;#34; ; font-size: 11pt ; text-indent: 36pt&quot;&gt;&lt;br&gt;&amp;lt;&amp;lt;&lt;/span&gt;&lt;span style=&quot;font-family: &amp;#34;arial&amp;#34; ; font-size: 14.6667px ; text-indent: 48px&quot;&gt;&quot;&amp;nbsp;&lt;/span&gt;&lt;span style=&quot;background-color: transparent ; font-family: &amp;#34;arial&amp;#34; ; font-size: 11pt ; text-indent: 36pt&quot;&gt;&amp;nbsp;“\t” &quot;;&quot;&amp;nbsp; &quot;\n&lt;/span&gt;&lt;span style=&quot;background-color: transparent ; font-family: &amp;#34;arial&amp;#34; ; font-size: 11pt&quot;&gt;}&lt;/span&gt;&lt;span style=&quot;background-color: transparent ; font-family: &amp;#34;arial&amp;#34; ; font-size: 11pt&quot;&gt;&quot;&lt;/span&gt;&lt;span style=&quot;background-color: transparent ; font-family: &amp;#34;arial&amp;#34; ; font-size: 11pt&quot;&gt;&lt;br&gt;&lt;/span&gt;" style="text;html=1;align=center;verticalAlign=middle;resizable=0;points=[];autosize=1;strokeColor=none;fillColor=none;" vertex="1" parent="1">
          <mxGeometry x="359" y="210" width="400" height="80" as="geometry" />
        </mxCell>
        <mxCell id="Cc2MgUanJk5E0EXbg8ge-16" style="edgeStyle=none;curved=1;rounded=0;orthogonalLoop=1;jettySize=auto;html=1;endArrow=open;startSize=14;endSize=14;sourcePerimeterSpacing=8;targetPerimeterSpacing=8;" edge="1" parent="1" source="Cc2MgUanJk5E0EXbg8ge-13">
          <mxGeometry relative="1" as="geometry">
            <mxPoint x="427" y="760" as="targetPoint" />
          </mxGeometry>
        </mxCell>
        <mxCell id="Cc2MgUanJk5E0EXbg8ge-13" value="Семантический&amp;nbsp; анализатор - преобразует структуру предложения (дерево разбора для предложения) в нечто осмысленное (выполняет заданное действие." style="rounded=0;whiteSpace=wrap;html=1;hachureGap=4;pointerEvents=0;" vertex="1" parent="1">
          <mxGeometry x="250" y="490" width="354" height="50" as="geometry" />
        </mxCell>
        <mxCell id="Cc2MgUanJk5E0EXbg8ge-15" value="пример:&lt;br&gt;типы данных void,int&lt;br&gt;функция print_mas с 2 аргумента: указатель и целое число&lt;br&gt;переменные arr,size,i&lt;br&gt;зарезервированные слова for std::cout&lt;br&gt;....&lt;span style=&quot;background-color: transparent ; font-family: &amp;#34;arial&amp;#34; ; font-size: 11pt&quot;&gt;&lt;br&gt;&lt;/span&gt;" style="text;html=1;align=center;verticalAlign=middle;resizable=0;points=[];autosize=1;strokeColor=none;fillColor=none;" vertex="1" parent="1">
          <mxGeometry x="457" y="375" width="340" height="90" as="geometry" />
        </mxCell>
        <mxCell id="Cc2MgUanJk5E0EXbg8ge-17" value="пример:&lt;br&gt;&lt;span style=&quot;background-color: transparent ; font-family: &amp;#34;arial&amp;#34; ; font-size: 11pt&quot;&gt;напечатать в консоли значения массива&lt;br&gt;&lt;/span&gt;" style="text;html=1;align=center;verticalAlign=middle;resizable=0;points=[];autosize=1;strokeColor=none;fillColor=none;" vertex="1" parent="1">
          <mxGeometry x="430" y="670" width="290" height="30" as="geometry" />
        </mxCell>
      </root>
    </mxGraphModel>
  </diagram>
</mxfile>
